HIERARCHY
ROOT hip
{
	OFFSET 0.000000 0.000000 0.000000 
	CHANNELS 6 Xposition Yposition Zposition Xrotation Zrotation Yrotation
	JOINT abdomen
	{
		OFFSET 0.000000 3.402643 0.000000 
		CHANNELS 3 Xrotation Zrotation Yrotation
		JOINT chest
		{
			OFFSET 0.000000 8.438565 -0.680529 
			CHANNELS 3 Xrotation Zrotation Yrotation
			JOINT neck
			{
				OFFSET 0.000000 10.207942 -0.272212 
				CHANNELS 3 Xrotation Zrotation Yrotation
				JOINT head
				{
					OFFSET 0.000000 3.130431 0.000000 
					CHANNELS 3 Xrotation Zrotation Yrotation
					End Site
					{
						OFFSET 0.000000 3.130435 0.000000 
					}
				}
			}
			JOINT lCollar
			{
				OFFSET 3.470700 6.669187 -0.816635 
				CHANNELS 3 Yrotation Zrotation Xrotation
				JOINT lShldr
				{
					OFFSET 3.198488 0.000000 0.000000 
					CHANNELS 3 Zrotation Yrotation Xrotation
					JOINT lForeArm
					{
						OFFSET 10.139888 0.000000 0.000000 
						CHANNELS 3 Yrotation Zrotation Xrotation
						JOINT lHand
						{
							OFFSET 8.370511 0.000000 0.000000 
							CHANNELS 3 Zrotation Yrotation Xrotation
							End Site
							{
								OFFSET 4.083176 0.000000 0.000000 
							}
						}
					}
				}
			}
			JOINT rCollar
			{
				OFFSET -3.470700 6.669187 -0.816635 
				CHANNELS 3 Yrotation Zrotation Xrotation
				JOINT rShldr
				{
					OFFSET -3.198488 0.000000 0.000000 
					CHANNELS 3 Zrotation Yrotation Xrotation
					JOINT rForeArm
					{
						OFFSET -10.139888 0.000000 0.000000 
						CHANNELS 3 Yrotation Zrotation Xrotation
						JOINT rHand
						{
							OFFSET -8.370511 0.000000 0.000000 
							CHANNELS 3 Zrotation Yrotation Xrotation
							End Site
							{
								OFFSET -4.083176 0.000000 0.000000 
							}
						}
					}
				}
			}
		}
	}
	JOINT lThigh
	{
		OFFSET 5.308129 -1.633274 1.361059 
		CHANNELS 3 Xrotation Zrotation Yrotation
		JOINT lShin
		{
			OFFSET -2.041588 -20.007561 0.000000 
			CHANNELS 3 Xrotation Zrotation Yrotation
			JOINT lFoot
			{
				OFFSET 0.000000 -19.190928 -1.224953 
				CHANNELS 3 Xrotation Yrotation Zrotation
				End Site
				{
					OFFSET 0.000000 -2.449906 4.627600 
				}
			}
		}
	}
	JOINT rThigh
	{
		OFFSET -5.308129 -1.633274 1.361059 
		CHANNELS 3 Xrotation Zrotation Yrotation
		JOINT rShin
		{
			OFFSET 2.041588 -20.007561 0.000000 
			CHANNELS 3 Xrotation Zrotation Yrotation
			JOINT rFoot
			{
				OFFSET 0.000000 -19.190928 -1.224953 
				CHANNELS 3 Xrotation Yrotation Zrotation
				End Site
				{
					OFFSET 0.000000 -2.449906 4.627600 
				}
			}
		}
	}
}
MOTION
Frames: 14
Frame Time: 0.033333
7.130685 46.070881 113.968643 -5.951354 2.607913 56.094238 0.000000 0.000000 0.000000 1.304497 10.538234 -24.700804 19.586874 -19.986666 20.104902 3.127750 0.778008 16.290703 -3.521967 9.154817 6.304141 -38.128613 -34.573181 -36.534100 -5.074441 -3.489288 36.328827 0.445330 20.707159 -9.064533 3.089181 -14.089146 8.026228 91.476135 15.162860 33.417431 75.666878 10.794856 65.681786 -120.021492 -38.667240 33.310642 -28.845074 29.946964 14.127109 35.268459 -1.136862 -39.740116 12.001931 -0.658849 -11.378383 4.830853 -22.787649 -20.399267 34.262527 -9.572664 18.588806 -22.609123 2.869143 -11.807155 
9.115002 45.321415 113.881577 -7.940914 2.115412 59.950291 0.000000 0.000000 0.000000 3.149462 11.905599 -23.923565 -5.922021 -8.093647 20.673622 27.744253 1.628621 15.426581 -3.521967 9.154817 6.304141 -36.361183 -41.856522 -56.956379 -10.839562 6.444052 57.023148 -15.372541 28.615602 -12.034641 3.089181 -14.089146 8.026228 76.346329 -10.547864 21.409542 101.803368 13.571746 58.791767 -117.007454 -38.878193 31.492329 -33.923912 31.764942 13.062003 44.327072 -0.985464 -43.163425 8.734170 -0.270685 -7.782518 9.233391 -20.933134 -22.531952 35.749062 -8.265911 13.988216 -23.576052 2.822403 -11.160802 
11.182147 45.240322 113.217728 -4.007482 1.754999 56.339275 0.000000 0.000000 0.000000 3.990731 10.355129 -22.046743 -17.140320 -4.221140 22.877947 23.085941 -1.180319 17.884581 -3.521967 9.154817 6.304141 -37.301224 -34.642681 -45.634159 -23.417828 -0.177152 47.488415 1.166464 19.236542 -8.929425 3.089181 -14.089146 8.026228 74.272881 -22.417847 17.612190 97.507454 10.367645 36.091335 -118.163284 -44.223000 40.358166 -33.046314 30.145597 15.461966 46.905991 -2.936699 -38.949356 6.003644 -0.055156 -4.687219 8.099915 -25.990240 -23.791153 33.157597 -9.143053 17.474379 -21.746229 2.664080 -11.300747 
12.407416 45.453869 112.802292 -0.373003 1.455862 47.354107 0.000000 0.000000 0.000000 -0.191325 8.531729 -22.131788 -5.967060 -15.317850 27.683804 8.004156 2.821944 18.676004 -3.521967 9.154817 6.304141 -37.205490 -26.634874 -51.428116 -10.934238 0.766732 45.627636 -3.446838 20.447079 -9.340325 3.089181 -14.089146 8.026228 76.044373 -17.741253 19.330210 87.814865 6.722449 21.222296 -119.404762 -51.119686 51.735985 -28.689482 31.635612 21.596714 47.766174 -6.108759 -35.356716 3.829143 0.006103 -2.421615 1.764578 -29.592781 -20.213003 30.785234 -11.739898 23.591560 -21.941265 2.859653 -12.028251 
13.332271 45.569065 112.382065 0.255603 0.773638 44.985794 0.000000 0.000000 0.000000 -1.795023 8.951117 -19.770891 -5.588557 -18.437401 25.443272 17.610382 5.102930 15.051898 -3.521967 9.154817 6.304141 -38.496765 -30.954458 -52.566860 -8.103241 4.461946 50.213665 -3.710928 18.973269 -9.216629 3.089181 -14.089146 8.026228 76.415619 -18.925003 16.504583 88.908974 6.406223 14.377522 -118.668938 -55.493793 57.415787 -28.562902 31.509056 22.301840 49.855824 -6.399127 -33.422401 1.200411 -0.036528 -0.023822 0.916874 -30.037970 -19.786791 28.127205 -11.571025 26.820883 -21.339165 2.808614 -12.049009 
14.205324 45.496529 112.032959 0.057442 0.410982 48.087585 0.000000 0.000000 0.000000 -1.090227 9.156729 -17.247038 -12.557003 -12.080747 21.994312 24.781946 0.948811 13.693374 -3.521967 9.154817 6.304141 -37.747787 -38.920197 -47.121361 -8.053098 4.664456 48.489929 -4.225074 20.042442 -9.360890 3.089181 -14.089146 8.026228 81.500923 -26.063766 -0.107187 94.601616 8.370106 -2.924678 -122.576218 -62.891918 72.052818 -31.461802 28.617771 18.638231 52.070576 -4.626084 -32.413116 -0.522372 -0.133964 1.653902 4.751738 -30.414375 -23.283194 25.909460 -9.393259 26.925419 -20.795454 2.728900 -11.953667 
14.793545 45.431725 111.779366 0.021197 -0.861935 48.806110 0.000000 0.000000 0.000000 0.262793 8.374829 -13.881283 -17.920473 -4.127715 17.860346 24.938433 -5.004001 13.548451 -3.521967 9.154817 6.304141 -37.112366 -38.200718 -45.369427 -23.133066 -2.463020 52.570988 -4.893642 19.154097 -9.310071 3.089181 -14.089146 8.026228 88.842323 -28.445057 -14.629295 93.505600 7.509997 -11.226682 -114.495499 -64.455765 65.750389 -33.602222 28.005873 17.090231 53.771648 -3.824641 -31.443380 -1.673175 -0.231278 2.670593 5.017326 -29.870186 -23.609110 25.208864 -8.781030 24.751923 -18.475067 2.350424 -11.286421 
15.278710 45.411022 111.691727 0.157491 -1.074879 47.207993 0.000000 0.000000 0.000000 -0.451711 7.347777 -13.944607 -15.128532 -6.239453 18.895258 21.499283 -0.341686 13.613501 -3.521967 9.154817 6.304141 -35.624676 -35.724339 -45.306278 -24.774910 -4.376939 52.236229 -4.560062 18.472578 -9.214092 3.089181 -14.089146 8.026228 91.385307 -24.859497 -18.146017 91.253250 7.158786 -25.616974 -105.637138 -67.739967 61.431664 -32.643444 28.588720 18.251883 54.372459 -4.254430 -30.928619 -2.971104 -0.321212 3.813526 4.674989 -30.474747 -23.960703 24.219791 -8.426608 25.846294 -17.029606 2.196725 -11.190890 
15.675453 45.351841 111.668388 0.554819 -1.022560 46.464649 0.000000 0.000000 0.000000 -1.340502 7.676142 -14.339854 -16.649220 -9.244988 21.185251 23.811533 3.397900 13.628339 -3.521967 9.154817 6.304141 -36.005840 -35.430176 -46.727383 -21.168953 -2.868920 52.614689 -5.482646 18.547354 -9.267262 3.089181 -14.089146 8.026228 92.394554 -23.417915 -22.573496 92.596420 10.111181 -45.135052 -98.643517 -76.960823 66.219391 -32.009495 28.755728 19.305964 55.112911 -4.709557 -31.033720 -3.899812 -0.451954 4.720292 4.929338 -31.501093 -24.966215 23.275888 -7.883291 27.230993 -16.216183 2.097498 -11.262999 
15.830530 45.229973 111.537712 1.360648 -2.090318 46.534115 0.000000 0.000000 0.000000 -3.182813 8.426456 -14.790860 -15.237144 -9.578720 21.257248 21.813995 1.336925 13.851559 -3.521967 9.154817 6.304141 -35.784477 -36.936558 -46.509106 -16.235403 -0.044206 51.843636 -5.383855 18.255787 -9.231930 3.089181 -14.089146 8.026228 91.641624 -23.179588 -26.704403 94.974182 13.914819 -57.736198 -79.038445 -85.372185 57.336964 -33.661301 28.777943 19.076784 55.827351 -4.784021 -31.104210 -4.670262 -0.550212 5.620933 3.943317 -32.018871 -25.318506 23.087206 -7.050359 27.250214 -15.100609 1.980085 -11.094374 
15.974368 45.079575 111.553352 1.109027 -2.189821 46.900002 0.000000 0.000000 0.000000 -2.574090 9.247430 -14.834903 -16.236849 -9.407434 21.364552 22.427490 0.417093 13.906657 -3.521967 9.154817 6.304141 -35.554546 -37.551987 -47.034779 -14.636007 1.382543 51.605766 -5.909438 18.172146 -9.248575 3.089181 -14.089146 8.026228 90.505241 -22.837393 -31.829123 97.544037 17.927158 -67.312050 54.592831 -85.359299 -66.059013 -34.311470 28.459177 18.115496 56.821724 -4.194352 -30.697924 -5.208997 -0.636745 6.016241 4.956295 -31.888914 -25.890364 22.258944 -6.788475 27.146130 -14.032689 1.783417 -10.661400 
16.068306 45.012329 111.570877 1.007389 -2.144201 46.702400 0.000000 0.000000 0.000000 -2.223602 9.123478 -14.859133 -16.316429 -9.670536 21.808496 22.118206 0.965950 14.132925 -3.521967 9.154817 6.304141 -35.397476 -36.570194 -47.394043 -15.316731 0.785991 51.708481 -5.944160 18.049263 -9.232757 3.089181 -14.089146 8.026228 88.670586 -20.790632 -34.342567 96.088181 20.677816 -75.659134 -87.626526 -98.872841 82.110847 -34.597786 28.219929 17.567167 57.431515 -3.804802 -30.088818 -5.362785 -0.633042 6.073212 5.115083 -31.999702 -25.951544 21.960258 -6.831593 27.605459 -13.483170 1.718253 -10.476079 
16.117720 44.966976 111.593620 0.869159 -2.003742 45.953835 0.000000 0.000000 0.000000 -1.845694 8.479199 -14.397574 -16.131510 -9.123998 21.811951 22.140732 0.955110 14.455306 -3.521967 9.154817 6.304141 -35.103062 -35.337395 -47.226906 -16.977922 -0.305888 52.486084 -6.265754 17.729700 -9.204733 3.089181 -14.089146 8.026228 86.769470 -17.909702 -35.034748 93.162582 21.836519 -83.941826 -58.323101 -104.595787 57.315151 -34.410107 28.353418 17.571054 57.992752 -3.560189 -29.271452 -5.718115 -0.680120 6.153780 4.839288 -32.337742 -26.070410 22.051926 -6.747217 28.704424 -13.184262 1.710158 -10.572104 
16.113619 44.908752 111.621658 0.644257 -1.957631 45.522316 0.000000 0.000000 0.000000 -1.424433 8.080253 -13.889445 -15.891002 -8.809452 21.595070 22.084574 0.964567 14.455306 -3.521967 9.154817 6.304141 -34.955814 -34.599556 -46.799648 -18.728844 -1.412755 53.025314 -5.698248 17.295908 -9.134503 3.089181 -14.089146 8.026228 85.588196 -14.524662 -35.613491 89.454407 22.037182 -94.984215 -35.070873 -110.900513 33.568291 -34.373837 28.572424 17.477358 58.369812 -3.365284 -28.767691 -5.779572 -0.650563 6.093132 4.634978 -32.515091 -26.243042 22.409416 -6.616879 29.602785 -13.663312 1.792916 -10.790648 
